<svg width="32" height="28" viewBox="0 0 32 28" fill="none" xmlns="http://www.w3.org/2000/svg">
<path fill-rule="evenodd" clip-rule="evenodd" d="M9 21H1V2H9V21Z" stroke="#D00846" stroke-width="2" stroke-linecap="round" stroke-linejoin="round"/>
<path fill-rule="evenodd" clip-rule="evenodd" d="M9 26H1V21H9V26Z" stroke="#D00846" stroke-width="2" stroke-linecap="round" stroke-linejoin="round"/>
<path d="M4 6H6" stroke="#D00846" stroke-width="2" stroke-linecap="round" stroke-linejoin="round"/>
<path d="M4 10H6" stroke="#D00846" stroke-width="2" stroke-linecap="round" stroke-linejoin="round"/>
<path d="M4 14H6" stroke="#D00846" stroke-width="2" stroke-linecap="round" stroke-linejoin="round"/>
<path fill-rule="evenodd" clip-rule="evenodd" d="M17 21H9V2H17V21Z" stroke="#D00846" stroke-width="2" stroke-linecap="round" stroke-linejoin="round"/>
<path fill-rule="evenodd" clip-rule="evenodd" d="M17 26H9V21H17V26Z" stroke="#D00846" stroke-width="2" stroke-linecap="round" stroke-linejoin="round"/>
<path d="M12 6H14" stroke="#D00846" stroke-width="2" stroke-linecap="round" stroke-linejoin="round"/>
<path d="M12 10H14" stroke="#D00846" stroke-width="2" stroke-linecap="round" stroke-linejoin="round"/>
<path d="M12 14H14" stroke="#D00846" stroke-width="2" stroke-linecap="round" stroke-linejoin="round"/>
<path fill-rule="evenodd" clip-rule="evenodd" d="M29.1778 19.7113L21.2998 21.1003L17.9998 2.3893L25.8788 1.0003L29.1778 19.7113V19.7113Z" stroke="#D00846" stroke-width="2" stroke-linecap="round" stroke-linejoin="round"/>
<path fill-rule="evenodd" clip-rule="evenodd" d="M30.046 24.6354L22.168 26.0244L21.299 21.1004L29.178 19.7114L30.046 24.6354V24.6354Z" stroke="#D00846" stroke-width="2" stroke-linecap="round" stroke-linejoin="round"/>
<path d="M21.649 5.8075L23.619 5.4605" stroke="#D00846" stroke-width="2" stroke-linecap="round" stroke-linejoin="round"/>
<path d="M22.3436 9.7467L24.3136 9.3997" stroke="#D00846" stroke-width="2" stroke-linecap="round" stroke-linejoin="round"/>
<path d="M23.0382 13.6859L25.0082 13.3389" stroke="#D00846" stroke-width="2" stroke-linecap="round" stroke-linejoin="round"/>
</svg>
