<?xml version="1.0" encoding="UTF-8"?>
<svg id="Layer_1" data-name="Layer 1" xmlns="http://www.w3.org/2000/svg" version="1.1" viewBox="0 0 609 121">
  <defs>
    <style>
      .cls-1 {
        fill: #e31e29;
      }

      .cls-1, .cls-2, .cls-3, .cls-4, .cls-5, .cls-6, .cls-7, .cls-8, .cls-9, .cls-10, .cls-11, .cls-12, .cls-13, .cls-14, .cls-15, .cls-16, .cls-17, .cls-18, .cls-19, .cls-20, .cls-21, .cls-22, .cls-23 {
        stroke-width: 0px;
      }

      .cls-2 {
        fill: none;
      }

      .cls-3 {
        fill: #18486b;
      }

      .cls-4 {
        fill: #f26a2c;
      }

      .cls-5 {
        fill: #4c9e45;
      }

      .cls-6 {
        fill: #e4243c;
      }

      .cls-7 {
        fill: #1b1b1b;
      }

      .cls-8 {
        fill: #de1767;
      }

      .cls-9 {
        fill: #bf8c2c;
      }

      .cls-10 {
        fill: #58595b;
      }

      .cls-11 {
        fill: #ef412b;
      }

      .cls-12 {
        fill: #b81d81;
      }

      .cls-13 {
        fill: #2650a3;
      }

      .cls-14 {
        fill: #c4202f;
      }

      .cls-15 {
        fill: #5bba47;
      }

      .cls-16 {
        fill: #fac212;
      }

      .cls-17 {
        fill: #dea63a;
      }

      .cls-18 {
        fill: #006a9e;
      }

      .cls-19 {
        fill: #a31d43;
      }

      .cls-20 {
        fill: #26bde3;
      }

      .cls-21 {
        fill: #fff;
      }

      .cls-22 {
        fill: #1b95d3;
      }

      .cls-23 {
        fill: #f99e26;
      }
    </style>
  </defs>
  <rect class="cls-2" width="609" height="121"/>
  <path class="cls-7" d="M479.24,41.7h-191.14v37.21h191.14v-37.21Z"/>
  <path class="cls-7" d="M444.17,0h-156.07v37.21h156.07V0Z"/>
  <path class="cls-1" d="M141.05,0v16.35h12.51v104.29h21.5V16.35h12.95V0h-46.95Z"/>
  <path class="cls-12" d="M217.79,0v45.65h-5.3V0h-20.31l.14,120.63h20.16v-58.61h5.3v58.61h20.16V0h-20.16Z"/>
  <path class="cls-13" d="M242.95,0v120.63h40.03v-18.16h-19.12v-40.45h16.03v-14.73h-16.03v-30.95h19.12V0h-40.03Z"/>
  <path class="cls-21" d="M296.73,4.76h-3.06v27.83h3.06V4.76Z"/>
  <path class="cls-21" d="M301.58,4.76h4.86l3.6,14.48c.61,2.45,1.19,5.3,1.65,8.47.41-2.77.97-5.6,1.68-8.44l3.64-14.51h4.86v27.83h-2.72V6.72l-6.44,25.87h-1.9l-6.53-25.87v25.87h-2.7V4.76Z"/>
  <path class="cls-21" d="M326.51,4.76h4.86c6.44,0,9.71,2.45,9.71,7.53s-3.18,7.56-9.71,7.56h-1.94v12.74h-3.04l.12-27.83ZM332.17,17.5c4.03,0,6.05-1.72,6.05-4.91s-2.01-5.23-6.05-5.23h-2.62v10.14h2.62Z"/>
  <path class="cls-21" d="M347.13,4.76h4.2l6.53,27.83h-3.23l-1.72-8.2h-7.51l-1.75,8.2h-3.01l6.48-27.83ZM352.35,21.77l-3.13-14.55-3.09,14.55h6.22Z"/>
  <path class="cls-21" d="M376.35,24.08c0,5.87-2.89,9.06-7.8,9.06-5.56,0-8.43-4.69-8.43-14.09,0-10.01,2.65-14.87,8.55-14.87,4.49,0,7.29,3.22,7.29,8.74h-2.96c-.19-4.1-1.82-6.23-4.45-6.23-3.93,0-5.34,3.93-5.34,12.1s1.53,11.81,5.83,11.81c2.67,0,4.45-2.31,4.45-6.53v-.59h2.77l.1.61Z"/>
  <path class="cls-21" d="M384.61,7.14h-5.95v-2.38h14.99v2.38h-6.03v25.45h-3.01V7.14Z"/>
  <path class="cls-21" d="M293.57,46.46h5.46c6.44,0,9.6,2.45,9.6,7.36.11,1.49-.3,2.97-1.16,4.19-.86,1.22-2.1,2.1-3.53,2.49l4.86,13.84h-3.3l-4.49-13.23h-4.37v13.16h-3.06v-27.81ZM299.23,58.73c4.08,0,6.14-1.62,6.14-4.91s-2.01-4.91-6.14-4.91h-2.6v9.69l2.6.12Z"/>
  <path class="cls-21" d="M317.88,46.46h4.2l6.53,27.83h-3.23l-1.72-8.2h-7.51l-1.75,8.2h-3.01l6.48-27.83ZM323.03,63.47l-3.13-14.53-3.08,14.53h6.22Z"/>
  <path class="cls-21" d="M334.86,48.62v25.67h-2.7v-27.83h4.47l6.15,15.78c.87,2.28,1.7,4.59,2.43,6.95-.19-2.02-.27-4.06-.24-6.09v-16.64h2.67v27.83h-3.01l-7.51-19.24c-.9-2.31-1.65-4.47-2.26-6.43Z"/>
  <path class="cls-21" d="M351.91,46.46h3.08v14.87l8.84-14.87h3.06l-5.95,9.82,6.9,18.02h-3.3l-5.56-15.05-4.01,6.7v8.35h-3.06v-27.83Z"/>
  <path class="cls-21" d="M374.62,46.46h-3.06v27.83h3.06v-27.83Z"/>
  <path class="cls-21" d="M381.23,48.62v25.67h-2.67v-27.83h4.47l6.15,15.78c.85,2.28,1.68,4.59,2.43,6.95-.19-2.02-.27-4.06-.24-6.09v-16.64h2.67v27.83h-3.01l-7.5-19.24c-.92-2.31-1.65-4.47-2.28-6.43Z"/>
  <path class="cls-21" d="M411.84,72.67c-.65.74-1.45,1.31-2.35,1.69-.9.37-1.87.54-2.84.47-5.65,0-8.49-4.7-8.5-14.09,0-10.01,2.65-14.87,8.55-14.87,4.49,0,7.29,3.22,7.29,8.76h-2.96c-.22-4.12-1.82-6.26-4.47-6.26-4.01,0-5.29,3.98-5.29,12.27,0,7.8,1.58,11.63,5.66,11.63,2.65,0,4.42-1.89,4.42-5.28v-3.19h-4.32v-2.45h7.29v13.03h-2.14l-.32-1.72Z"/>
  <path class="cls-21" d="M420.99,66.91c.22,3.63,1.7,5.35,4.86,5.35.6.02,1.19-.08,1.75-.31.55-.23,1.05-.57,1.47-1.01.41-.44.73-.96.93-1.52.2-.57.28-1.17.23-1.78,0-3.02-2.14-4.79-5.78-7.36-3.64-2.58-5.78-4.37-5.78-8.15.01-.85.19-1.68.53-2.46.34-.78.83-1.47,1.44-2.05.61-.58,1.33-1.03,2.12-1.32.79-.29,1.63-.42,2.46-.38.99-.06,1.98.1,2.9.46.92.36,1.76.92,2.45,1.64.69.72,1.22,1.58,1.56,2.52.33.94.46,1.95.38,2.95h-2.84c-.27-3.44-1.7-5.18-4.35-5.18-.52-.05-1.05.02-1.55.2-.5.18-.95.46-1.33.83-.38.37-.68.82-.87,1.31-.19.5-.28,1.03-.26,1.56.02.61.15,1.22.4,1.78.25.56.61,1.06,1.06,1.48,1.76,1.52,3.62,2.93,5.56,4.2,1.39.79,2.55,1.93,3.38,3.3.83,1.38,1.29,2.94,1.34,4.55.06.98-.09,1.97-.43,2.89-.34.92-.88,1.76-1.57,2.45-.69.7-1.52,1.24-2.43,1.58-.91.35-1.89.5-2.86.44-4.69,0-7.46-2.85-7.56-7.93l2.79-.05Z"/>
  <path class="cls-6" d="M301.39,83.4h-13.29v37.21h13.29v-37.21Z"/>
  <path class="cls-17" d="M314.65,83.4h-13.29v37.21h13.29v-37.21Z"/>
  <path class="cls-5" d="M327.96,83.4h-13.29v37.21h13.29v-37.21Z"/>
  <path class="cls-14" d="M341.23,83.4h-13.29v37.21h13.29v-37.21Z"/>
  <path class="cls-11" d="M354.54,83.4h-13.29v37.21h13.29v-37.21Z"/>
  <path class="cls-20" d="M367.82,83.4h-13.29v37.21h13.29v-37.21Z"/>
  <path class="cls-16" d="M381.11,83.4h-13.29v37.21h13.29v-37.21Z"/>
  <path class="cls-19" d="M394.4,83.4h-13.29v37.21h13.29v-37.21Z"/>
  <path class="cls-4" d="M407.68,83.4h-13.29v37.21h13.29v-37.21Z"/>
  <path class="cls-8" d="M420.97,83.4h-13.29v37.21h13.29v-37.21Z"/>
  <path class="cls-23" d="M434.26,83.4h-13.29v37.21h13.29v-37.21Z"/>
  <path class="cls-9" d="M447.54,83.4h-13.29v37.21h13.29v-37.21Z"/>
  <path class="cls-8" d="M460.83,83.4h-13.29v37.21h13.29v-37.21Z"/>
  <path class="cls-22" d="M474.12,83.4h-13.29v37.21h13.29v-37.21Z"/>
  <path class="cls-15" d="M487.4,83.4h-13.29v37.21h13.29v-37.21Z"/>
  <path class="cls-18" d="M500.69,83.4h-13.29v37.21h13.29v-37.21Z"/>
  <path class="cls-3" d="M513.98,83.4h-13.29v37.21h13.29v-37.21Z"/>
  <path class="cls-10" d="M0,2.01h13.99l17,44.5h.32V2.01h11.97v77.02h-12.15L12.29,29.67h-.15v49.36H0V2.01Z"/>
  <path class="cls-10" d="M52.15,63.15v-25.7c0-11.24,8.21-17.18,17.83-17.18s17.97,5.4,17.97,16.74v26.04c0,11.66-8.14,17.18-17.97,17.18-10.25-.12-17.83-5.52-17.83-17.08ZM75.3,63.81v-27c.09-.77.02-1.55-.2-2.29-.23-.74-.61-1.42-1.11-2-.51-.58-1.13-1.04-1.83-1.36-.7-.32-1.46-.48-2.22-.49-3.74,0-5.22,2.9-5.22,6.26v26.88c-.1.76-.04,1.54.18,2.28.22.74.6,1.41,1.11,1.99.51.57,1.13,1.03,1.83,1.34.7.31,1.46.46,2.22.44,4.11.1,5.25-2.92,5.25-6.04Z"/>
  <path class="cls-10" d="M96.07,63.27h11.97v15.76h-11.97v-15.76Z"/>
  <path class="cls-10" d="M122.15,15.32l-5.56,1.4-1.7-9.82,12.73-4.91h7.29v77.04h-12.75V15.32Z"/>
  <path class="cls-10" d="M0,85.9h6.12v35.1H0v-35.1Z"/>
  <path class="cls-10" d="M11.66,85.9h6.32l7.68,20.25h.15v-20.25h5.44v35.1h-5.54l-8.5-22.46h-.19v22.46h-5.34v-35.1Z"/>
  <path class="cls-10" d="M44.79,85.9h6.22v35.1h-6.22v-35.1Z"/>
  <path class="cls-10" d="M56.45,85.9h6.32l7.68,20.32h.15v-20.32h5.44v35.1h-5.59l-8.5-22.46v22.46h-5.49v-35.1Z"/>
  <path class="cls-10" d="M81.52,85.9h9.57c5.05,0,9.08,2.65,9.08,8.15v18.24c0,5.89-4.03,8.64-9.18,8.64h-9.47v-35.02ZM90.46,115.62c.48.03.96-.05,1.4-.23.45-.18.85-.45,1.18-.8.33-.35.59-.77.74-1.22.16-.46.21-.94.17-1.43v-17.18c.04-.48-.02-.96-.18-1.41-.16-.45-.43-.86-.77-1.19-.34-.33-.75-.59-1.2-.74-.45-.15-.93-.2-1.4-.15h-2.82v24.54l2.87-.2Z"/>
  <path class="cls-10" d="M105.32,85.9h6.12v35.1h-6.12v-35.1Z"/>
  <path class="cls-10" d="M122.81,85.9h8.36l6.75,35.1h-6.17l-1.6-8.49h-7.14l-1.56,8.49h-5.68l7.04-35.1ZM129.17,107.48l-2.43-14.55h-.19l-2.67,14.58,5.29-.02Z"/>
  <g>
    <path class="cls-10" d="M520.92,115.15l8.52-13.11c1.86-2.9,3.72-5.32,3.72-8.57,0-2.25-.87-3.46-2.55-3.46-2.55,0-3.16,2.34-3.16,5.19v1.6h-6.53v-1.73c0-6.19,2.68-10.68,9.56-10.68,6.14,0,9.3,3.42,9.3,9.21,0,4.28-2.21,7.27-4.59,10.86l-6.75,10.12h10.38v5.28h-17.91v-4.71Z"/>
    <path class="cls-10" d="M543.42,110.34v-15.7c0-6.14,2.9-10.3,9.39-10.3s9.34,4.15,9.34,10.3v15.7c0,5.93-3.2,10.12-9.34,10.12s-9.39-4.15-9.39-10.12ZM555.36,110.21v-15.44c0-1.86-.17-4.54-2.55-4.54s-2.6,2.68-2.6,4.54v15.44c0,1.73.3,4.37,2.6,4.37s2.55-2.64,2.55-4.37Z"/>
    <path class="cls-10" d="M566.31,115.15l8.52-13.11c1.86-2.9,3.72-5.32,3.72-8.57,0-2.25-.87-3.46-2.55-3.46-2.55,0-3.16,2.34-3.16,5.19v1.6h-6.53v-1.73c0-6.19,2.68-10.68,9.56-10.68,6.14,0,9.3,3.42,9.3,9.21,0,4.28-2.21,7.27-4.59,10.86l-6.75,10.12h10.38v5.28h-17.91v-4.71Z"/>
    <path class="cls-10" d="M597.76,111.64h-10.64v-5.19l9.13-21.63h7.74v21.76h3.42v5.06h-3.42v8.22h-6.23v-8.22ZM597.76,106.58v-14.88l-5.36,14.88h5.36Z"/>
  </g>
</svg>